<?xml version="1.0" standalone="no"?><!DOCTYPE svg PUBLIC "-//W3C//DTD SVG 1.1//EN" "http://www.w3.org/Graphics/SVG/1.1/DTD/svg11.dtd"><svg t="1686132629070" class="icon" viewBox="0 0 1024 1024" version="1.1" xmlns="http://www.w3.org/2000/svg" p-id="4461" xmlns:xlink="http://www.w3.org/1999/xlink" width="200" height="200"><path d="M851.2 172.16c-186.88-186.88-491.52-187.52-679.04 0-186.88 186.88-186.88 491.52 0 679.04A477.888 477.888 0 0 0 512 992c128 0 248.96-49.92 339.2-140.8 187.52-186.88 187.52-491.52 0-679.04z m-74.88 603.52A371.84 371.84 0 0 1 512 885.12c-99.84 0-193.28-39.04-264.32-109.44-145.92-145.92-145.92-382.72 0-528A375.232 375.232 0 0 1 512 138.88c95.36 0 191.36 36.48 264.32 109.44a373.504 373.504 0 0 1 0 527.36z" fill="" p-id="4462"></path><path d="M733.44 458.24H565.12V290.56c0-29.44-23.68-53.12-53.12-53.12-29.44 0-53.12 23.68-53.12 53.12v167.68H290.56c-29.44 0-53.12 24.32-53.12 53.76s23.68 53.12 53.12 53.12h167.68v167.68c0 29.44 23.68 53.12 53.12 53.12 29.44 0 53.12-23.68 53.12-53.12V565.12h167.68c29.44 0 53.12-23.68 53.12-53.12s-22.4-53.76-51.84-53.76z" fill="" p-id="4463"></path></svg>