<?xml version="1.0" standalone="no"?><!DOCTYPE svg PUBLIC "-//W3C//DTD SVG 1.1//EN" "http://www.w3.org/Graphics/SVG/1.1/DTD/svg11.dtd"><svg t="1686132664807" class="icon" viewBox="0 0 1024 1024" version="1.1" xmlns="http://www.w3.org/2000/svg" p-id="2003" xmlns:xlink="http://www.w3.org/1999/xlink" width="200" height="200"><path d="M851.84 172.16C664.32-15.36 359.68-15.36 172.8 172.16c-187.52 187.52-187.52 492.16 0 679.04A476.16 476.16 0 0 0 512 992c122.88 0 245.76-46.72 339.84-140.16 186.88-187.52 186.88-492.16 0-679.68z m-75.52 604.16c-145.92 145.28-382.72 145.28-528 0-145.28-145.92-145.28-382.72 0-528 145.92-145.28 382.72-145.92 528 0 145.28 145.28 145.28 382.08 0 528z" fill="" p-id="2004"></path><path d="M733.44 458.88H290.56c-29.44 0-53.12 23.68-53.12 53.12 0 29.44 23.68 53.12 53.12 53.12h442.88c29.44 0 53.12-23.68 53.12-53.12 0-29.44-23.68-53.12-53.12-53.12z" fill="" p-id="2005"></path></svg>